<mxfile host="app.diagrams.net" modified="2023-02-28T13:25:24.376Z" agent="5.0 (Windows NT 10.0; Win64; x64) AppleWebKit/537.36 (KHTML, like Gecko) Chrome/110.0.0.0 Safari/537.36" etag="1BROgJQmQuJEVh7PEGtT" version="20.8.23" type="github">
  <diagram name="Page-1" id="u7DjhHX4WkIs-x0uHZ3q">
    <mxGraphModel dx="2284" dy="788" grid="1" gridSize="10" guides="1" tooltips="1" connect="1" arrows="1" fold="1" page="1" pageScale="1" pageWidth="850" pageHeight="1100" math="0" shadow="0">
      <root>
        <mxCell id="0" />
        <mxCell id="1" parent="0" />
        <mxCell id="bXhXmOd4GZYANGKONZyo-2" value="" style="shape=image;verticalLabelPosition=bottom;labelBackgroundColor=default;verticalAlign=top;aspect=fixed;imageAspect=0;image=data:image/png,iVBORw0KGgoAAAANSUhEUgAAAF4AAAAwCAYAAACYLM1EAAADhUlEQVR4nO2bXUhTYRjH/xv7Lr/CkYHZlYWRQRAJu7CM7kovJlF+RBHWhdLdQCGLECWrUYQgQRQa6TJy0QdBpIkEglcaBKOvq4oEIx2TnR03PV3Y9My2s/Ppu3be3912zvux/973/zzvszND/dbfHCgbjpH0BPQKFZ4QVHhCUOEJQYUnBBWeEFR4QpiELpa5BC9TeAQmYpLuF1S23Z+jaDJ6oqFoTtL91GoIIdpLpG4lPaDEikW37HSHZA+SrQzMFMhuS62GEFR4QsgyKTlbjB/15bT3eyMY9jIAVrxVTsbV6Q6txqp2f44sj5aavaSCrnhCUOEJofhoKrT1xFiKUPtajx1uj02wfWAipjjj4ltQMpRkL6mgK54QqhdjDp+yovKEBaX7N67OIzbQDnuZjDkIqqJORbUFFTVmVFRbJLdVuo3VKOSRqEkpnnXPVB62bEvuWJMvFjHuW8T7t1Glw2QdioVPJnpwdhnN5UGlXQsiNqDWeuwZWd5WbUbjPhYH66wAgDynEW2PNqP75ELadnKyGrV9mkRWo1j4Gw0LmB5dsZKv00s4e80BACg/ZEb9ZTsGOxjZfXNI/qxVmcuE3S6z7H4zAcXCx0UHgNF+FvlO4+oqPdpsw4/Pyxj3sbL6NsCQ8lq6/D7TUT2PH/YyGO1fE/r8LQd2Hsg8jyWNLEX83ojg9futYQRnV2yCA4c9lSb8/LKE0N/HNNO1FzNWqvc5cAk7Zf3rOIGJmOhYIWW+YjEIPbTKDypqVeWyCSX60JIBIURbTa3HruU8NowP76L4OCk+HdXqc4sW/n/PIuK4PTZMjUQx1MXgW2Ap7f1lLpMmBzBdWs2+I2Z0j+WipXdTynKH1gh+lZlSyVMLZ4kRhcVrQrvcFrjcFoz0sRjsYMCGhf8co6YegllNNlLVaMXxVhvynP+u9Oc9EQx1JZ60+b/NpistSEF3VjP2kEVzeRAPLobBhBLXXM0FGwZmCnCsRft4pjvh47y+x6KpdB6+DgaxdVXrukt23P2Uj6pGq2bj61b4OC97Izi9fQ5PridajCPXgCavA84SbSTSvfBxnt6MoKFoDs9uJ5YH+MFYTajw63h8lcGZHfN4dUf9+gwfKnwSoiyHgSsMzu2ax5s+eSXtdFDhBQgHOfS1hdGyNyj7N4VU6C6PV0JhsRG/vi+r0hdd8RJQS3SACk8MKjwhqPCE+AML6h4rfvZg7QAAAABJRU5ErkJggg==;" vertex="1" parent="1">
          <mxGeometry x="213" y="480" width="94" height="48" as="geometry" />
        </mxCell>
        <mxCell id="bXhXmOd4GZYANGKONZyo-3" value="" style="shape=image;verticalLabelPosition=bottom;labelBackgroundColor=default;verticalAlign=top;aspect=fixed;imageAspect=0;image=data:image/png,iVBORw0KGgoAAAANSUhEUgAAADMAAAA2CAYAAABqbKGZAAAEnUlEQVRoge2ZTWwbRRTH/wXU9MD4gBKJenLhQ9g+cYhjI2iihiQSFGFqI5WD82EpPdCUIHqgbfoFSgklrVCgURIOjSBRfOCAHbkSHOwkvcZOJE54nUotSN31Abjs5JJc4BB5la53dme9i1hV/t08O573/jtf77099HLo1X/whPDU/+2AmzTFeJWmGK/SFONVmmK8yjNuDhYKBhDpDKO/t2f/dygAHyFQGUO5XAEA5FfXUSxtoixV3DQNADjkNJzxEYLhoSTePxkDpX7h/8mygp9WclhcSkNlzIkLGo7EJE6+i4/PnrElQo8sK7g9O4/Myt2Gx6jRkBgfIZibmUY0EnbsQI2N4iZGx845miXbBwClfiwv3nFVCABEI2EsL95xNMu2ZoZSP3KZH+EjpGGDVqiMIZb4ALKs2P6v8Mz4CMH8zPR/KsSpnaefa3v+c5GOE59dQXfXG4+1ZVbuorC6jvZ22pBxWakiu5LDg4d/IBQMaO1tra1oa21FYW3d1nhCy6y/twdzM9N17R3RLm3DRiNhTH15HdR/FABQLG3V9Y90dmgibs/OI5PNac/u//ZrXf+B1GlsFDcFpQiKuZf/uW5jykoVx/verusbjYRNHQgFA5Blpe7USi8uaGI1G7KC4/0nrNzTsNwzibjxZaiqqmF/qzdZlirCxy+lfiTiMaG+gICY1GDSsP3gGneDYPAVW/aNMBXjI4TrtKxUXT3ZFKVq2B4KBoTtmIrp6+vhPrtw6aprMRUAfHHjZkN+HMRUTH/vm4btUmXb1ikjwkZxE1Jl25YfeiyXmbHhktDgdskX1mz5ocdUDCHPGrarqnvL6yC8HIfnhx5TMW6fWFbw9qCoH55Km6OdziJxUzGM7Ri2U0odGbULzw89pmJ4aziqCzvcoq/X+AgWrReYinnEySko9buenFHq5+4Nnh96TMVslPhH8Njoh0IGRLl88VPus7IkCY1hvszK/OmNRsK4Ms53wA6JeEwrTxkhekFb7hnerQwAw4NJzM1MN5y3+wjB1OQEpiYnuH2kyrbwnrHMNHf3drW3JssKOl7rgiRV0N11DC0th/HSiy8gNZREKBhAS8thEEIgc4JGYP/O6D72OlKDA/jm6ymEQuZ3yK3pb4XFiCVnhV+0DLJWEqLUj/TiQt3tLCtVxOKnDC9AHyFILy0gGDAO9/XwEkAeQjUAWVbwzom3AADt1I8jR1qQWcnhz7//qlvrM7PfYaNkvMZ39/Yem2krLl66hgcPfxfqCwjWmvfrw1taWjs8mMT3S2lksjkwlSERfw8+QvBIVpBfNS9CiJaQCmv3LMfSI1w30y+R/Oo6RsfO2TJWw6h4cRCpso3k0IjtfEk4NlMZw/nxq1poUavY6C86p9knYzs4P95Y4me71hwKBnDzxnXuJhYpD/FmRlaqOPPRJw1/7rAdNZelCpJDI4Z1MScUS1uIxU85+m7TUAqgMobk8AguXL4mHNHW0Md0jO1g8qtbSA7b3yN6HH05y2RzKBTWkYjHkBoaAPUftQwKy+UKGNuByhh+WFpGJpvzxscmr+GpTNMpTTFepSnGqzTFeJUnSsy/WOLCtB2CNVYAAAAASUVORK5CYII=;" vertex="1" parent="1">
          <mxGeometry x="230" y="630" width="51" height="54" as="geometry" />
        </mxCell>
        <mxCell id="bXhXmOd4GZYANGKONZyo-4" value="" style="shape=image;verticalLabelPosition=bottom;labelBackgroundColor=default;verticalAlign=top;aspect=fixed;imageAspect=0;image=data:image/png,iVBORw0KGgoAAAANSUhEUgAAAIwAAAAeCAYAAAD+bvZ2AAAIOklEQVR4nO1bPWzi2Bb+/ANMgJKIqRIpNKEBKWzFiulC0kL7li2zm25GCs2keKz0Nk2Qki6z2W7Ia6HNkC5o2GaIljSkIRKpgkJJ/ALYvq+49sUGm4xZtJvV+pOmGPv63nPO/XzuOZ8JRwghcOHiK8H/1Qa4+HvBJYwLR3AJ48IRXMK4cASXMC4cQXT6wKhUhlK/gtruAAD4yCr4yArEzBb4yOrCDXTxssA5bauf9n6Gen1jeU/MbsP7478WYpiLlwnHhCF9CU+7+yDdnvWE4RD418vW1+NRCLEouHBoPmv/JAxPzkBu78CtrcC7+90fnk+u1qBc1BYy3yLnmoTut7CZgphOWY5xfCRxQT88uSyGxVPL+6Tbg2JDJlRrAAAhmYCY2YIQjzpd/k+B2u5Avb4BvyBNk3QfoDRbC5lvkXNNgvkdW7cd45gwACCmU7aE4ddWwEdWwb0eZxFy36PG3N4BAJR6A0q9ASEehfffb8EF/fOY4eIvwFyEmQQXDsGT2YKQfjNz80lfglJvYFQq00zUbOFpdx+vivu2xxTp9iBrmUlMp6DeP0C9vgEXDpnSptJsQfntCqTdYcefuGmdVgEttdcbwKMETi/cZ4wnfQly5RMAQEhusAKf9CUoFzVTEyBspizjQLo9jEoVAIAnl5lpm3rdAun2Zvqir036EouPVRxJtwel3oDa7YEL+MHH1sG/XjbF1ficen2DUakyFWNgTsIMD8fZxZPLwJPLftVzXNAPMU3Px1GpjFGpAtLtYVA4hu/wvWWQ1fsHjEplAAC5f4B8QZ3kY+sQ0ymQvoRh8ZRuvhHVGkYfy/AV3pq6N7XdwbD4K9tgAECzRe/93oI3v2Np+6BwRNP1Gu0IAbqxow9nbMMoauBKZfgO3091jZQw1BcrwpC+hOFPx1A0e4y+KJ+/wFd4N77WlzDIH5j8kCvn8O7tQEgmxteqNcvTQEhuQKlfAaCxFAyEUZoteuxpMTbCMWGUZottmndvx7Y4eg6eXBZceBnD4inUdgdy5fxZ4skXNXDhEIRYFNDINSz+whwXN1PgXofom1etUTLmD/Dq5Gdw4ZBGrjFZ9PGA9lZ3HyzXHZ6c0awW8MOb3wEX9GvEoxvBx9YhapskV2tQb+/ouh+PTC8BF/CDi6zY+qeTctI2pdmaICWg3t6BC/gZeZUqzTTDkzMsabYo9QazkQuHGJFoSXBlawcXDtHMZiGTOCcMK1w35iYLWzydgqoRUK58epYwQnLD9JYpzRZzfJK8ajqFwd4BSF/C6GMZ3vwOlOolI8urk/+YAuLJZaezFGhw9aPIm99hz+iZYtImIf2GdZFK9RJidpvd4yIreFXct/RNqTcYWSZ98eRgzogafMVxFpMjqxgWT0G6PZC+BC7ox/DkDACtK33FfUZeksuayDkJMZ2y3QvHSq9yTdOlmBkHgvQlDArH1GDtTZCrNQzyB2wTjGOMELTAkL5k26ozRwxrAoCq2cKvrUyRl4+ssrl1m2XNFnEzZfn2GFM5QI8Q3V5PLmO6P35DOYxKFfZPrnxisoJsQUA7sBrIwhfdH9P/tebCyna13aHE0eLp+T5rznRB/9wtueMMoxthNFapXjJiCMkEhGQCo5MzkEcJhBAIyYR5zGaKtdTG1lq9fzCdpc+BnfU2hbaQTECufJoiorGDmwXjc2L6jbUNWsf3R/GcL1OYGDdZ/6n3huM1MD3nvKq8cx0mHALp0jaZbfq334DT0rZuiJjdwqhUMY8pVYCg3yTsGVOtleA3C0I8StPq4/8s7+sbOdk5kPvZmYzZs0brDfX2zrYw9xXeTmWmefCcL05hIsSjNHXf6oj7qnmdPiDEKAGMbxUXDmGpdISl0hHbHE8uC3+1xM5CLhzCUuUX0xjjPFzA71gB5jVb1HaHtYg61HYHilac6zazwvSiZpkVJudA0A/fT+/ABWiRO/pwNo5DcoM+o70ok5jqdGzAMvYMX/TrTsAFx/EclSqmopn0JYw+/NfRfDocZxghnaIBv6hBTVvXAl8L2h3RgIvZLcfPC/Eoaw/11pqPrII8SlCql7T4C/jh+T6rrbE97mIKx5r+oNUb1UtL3YELh+DN72BQOIZcrYGPRak0kNmGUr+C0mxhkD+AkE6BCwQ0tbRFj+I4LXCZZjOhwzz9uA/19o5JE3xsHer1DfXlosZIpNQbQGDJtmC2g3f3OwwKx1DbHTzt7kP49hs63+cvlvWinj11HYaPrU+p8c4zjCYiEU0HeK5QtYMeaNKXNG1j+/mHLODd+4G97booKJfPKVnCIfiK702Zy1fcZ0eNXK1pehAVEvmw9ZEoJBNMN9FlACEehXdvh/kyPDzFoHBEv+Y3W6a5hGSCHeX6egCY8q1nD1/h3diXZouNVdududRwIZlgNpJuD3L5nMam22PrGKHvgb623lQY4fjjow4pnQMA+A7fO/ompAdNT7v82gpN+zOV3ksAtPC0G0db7AbUdgd8eJmqozPafqXegNJssc3nY1Hmh1ytgXQfwIWXTXPI5XOQR8l0XbdPP4Im52J+9GnWU65b4AIB2uZr9oqZbRMhTL5EVsFHVtl6SrMF9bo1ZRswbvUn40S6PSifv1ClN+gHH4tqSu90XNV2h8XGk92eqs8WShhZE8v4yKopAKQvMUNMRW5sHb7CO/db0t8Ic30aMBZlTDiykaCtICQ3IGa2X+zXahf2cK7D9KWxyhmPQvmtAaVaYylZl5UnoR8TQvzl/x7GhT0W+4u7zNbCf9Tj4mXBeVsdjwJ9iVX4ukQtZt3f9P4TMHfR6+KfCffPTFw4gksYF47wf6ONjbpO/VuOAAAAAElFTkSuQmCC;" vertex="1" parent="1">
          <mxGeometry x="190" y="320" width="140" height="30" as="geometry" />
        </mxCell>
        <mxCell id="bXhXmOd4GZYANGKONZyo-5" value="Gluu&#39;s Internal Frontend&amp;nbsp;&lt;br&gt;&lt;br&gt;(to view/add/edit/delete intents)" style="rounded=0;whiteSpace=wrap;html=1;" vertex="1" parent="1">
          <mxGeometry x="620" y="320" width="130" height="80" as="geometry" />
        </mxCell>
        <mxCell id="bXhXmOd4GZYANGKONZyo-6" value="" style="endArrow=classic;html=1;rounded=0;entryX=1;entryY=0.5;entryDx=0;entryDy=0;exitX=0.75;exitY=1;exitDx=0;exitDy=0;" edge="1" parent="1" source="bXhXmOd4GZYANGKONZyo-5" target="bXhXmOd4GZYANGKONZyo-3">
          <mxGeometry width="50" height="50" relative="1" as="geometry">
            <mxPoint x="660" y="480" as="sourcePoint" />
            <mxPoint x="710" y="430" as="targetPoint" />
            <Array as="points">
              <mxPoint x="720" y="657" />
            </Array>
          </mxGeometry>
        </mxCell>
        <mxCell id="bXhXmOd4GZYANGKONZyo-7" value="Added intents will &lt;br&gt;be stored to a &lt;br&gt;&lt;b&gt;Github&lt;/b&gt; Repo in &lt;br&gt;training file." style="text;html=1;align=center;verticalAlign=middle;resizable=0;points=[];autosize=1;strokeColor=none;fillColor=none;" vertex="1" parent="1">
          <mxGeometry x="710" y="469" width="120" height="70" as="geometry" />
        </mxCell>
        <mxCell id="bXhXmOd4GZYANGKONZyo-8" value="" style="shape=actor;whiteSpace=wrap;html=1;" vertex="1" parent="1">
          <mxGeometry x="241" y="160" width="40" height="40" as="geometry" />
        </mxCell>
        <mxCell id="bXhXmOd4GZYANGKONZyo-9" value="" style="endArrow=classic;html=1;rounded=0;exitX=0.075;exitY=1.05;exitDx=0;exitDy=0;exitPerimeter=0;" edge="1" parent="1" source="bXhXmOd4GZYANGKONZyo-8">
          <mxGeometry width="50" height="50" relative="1" as="geometry">
            <mxPoint x="400" y="380" as="sourcePoint" />
            <mxPoint x="244" y="310" as="targetPoint" />
          </mxGeometry>
        </mxCell>
        <mxCell id="bXhXmOd4GZYANGKONZyo-10" value="" style="endArrow=classic;html=1;rounded=0;entryX=0.75;entryY=1;entryDx=0;entryDy=0;" edge="1" parent="1" target="bXhXmOd4GZYANGKONZyo-8">
          <mxGeometry width="50" height="50" relative="1" as="geometry">
            <mxPoint x="271" y="310" as="sourcePoint" />
            <mxPoint x="450" y="330" as="targetPoint" />
          </mxGeometry>
        </mxCell>
        <mxCell id="bXhXmOd4GZYANGKONZyo-11" value="Message" style="text;html=1;align=center;verticalAlign=middle;resizable=0;points=[];autosize=1;strokeColor=none;fillColor=none;" vertex="1" parent="1">
          <mxGeometry x="170" y="245" width="70" height="30" as="geometry" />
        </mxCell>
        <mxCell id="bXhXmOd4GZYANGKONZyo-12" value="Reply" style="text;html=1;align=center;verticalAlign=middle;resizable=0;points=[];autosize=1;strokeColor=none;fillColor=none;" vertex="1" parent="1">
          <mxGeometry x="280" y="245" width="50" height="30" as="geometry" />
        </mxCell>
        <mxCell id="bXhXmOd4GZYANGKONZyo-13" value="" style="endArrow=classic;startArrow=classic;html=1;rounded=0;" edge="1" parent="1">
          <mxGeometry width="50" height="50" relative="1" as="geometry">
            <mxPoint x="260" y="474" as="sourcePoint" />
            <mxPoint x="260" y="360" as="targetPoint" />
          </mxGeometry>
        </mxCell>
        <mxCell id="bXhXmOd4GZYANGKONZyo-14" value="" style="endArrow=classic;html=1;rounded=0;" edge="1" parent="1">
          <mxGeometry width="50" height="50" relative="1" as="geometry">
            <mxPoint x="260" y="620" as="sourcePoint" />
            <mxPoint x="260" y="540" as="targetPoint" />
          </mxGeometry>
        </mxCell>
        <mxCell id="bXhXmOd4GZYANGKONZyo-15" value="" style="shape=image;verticalLabelPosition=bottom;labelBackgroundColor=default;verticalAlign=top;aspect=fixed;imageAspect=0;image=data:image/png,iVBORw0KGgoAAAANSUhEUgAAALYAAAA2CAYAAABqQGPcAAAKs0lEQVR4nO2dT0zbWB7Hv7Pa2wZfm9a5bapiLpNWwumhLKMBpDJVpVJKR6JqCDuXVgS4lQS4bSGlN0JWs5dOAquONNsS0FazIEGkqeAwCdI0pyZSc4wZuDrhvHswdv3n2XGCTWc97yOhti9+frb5vvd+/5x+duXPf/kvKBSP8YdPfQEUihtQYVM8CRU2xZNQYVM8CRU2xZNQYVM8CRU2xZNQYVM8yR/PayCOC8LX4QMAHBRLlscyjA9XOoMAgMPDIwi1I9evj+ItXBU2G/AjNhkFH74KNuBX2kWxgfzOHnZ39pHf3VeO7eZDGBsfAccFNecRakdYSWWwmdt283IpHuIzt1LqQ8ODSMzFwDA+x85ZLJQQezwHUWw4dk6KN3FF2BwXxMabF06fFoAk7siDaVfOTfEOrjiPi88TbpwWAMCHJXOFQrHCcWGzAb/BRnaayNg9V89P+f/Hceexf6CH2F4pV7G7s9/SuRjGh6HhQXR0/EnTLk+ecrna9nWaMTQ8CJa9YHlMrXaEg2LJ0WiNftx0KuvYuX+POC7sjg6ysxh5MN2W01cslJD+9qlxHAedUjV3h2+imw/ZOnY18wrJhbQr41Jhnw3HTZHwdbIoOts0T7r5z89yOa4yNj7impNMORtnWrH7B3qQmIshMZNEsSAlXcrvq8QVb+3l8lmGsuTv/1hAR4cPiZnkuSdzOC6I2NQ40qnMuY5LsaZtYQ8NDyK5FDe0FwslRKLuO3fyRAIkW7ybD2Hj3y8w9mDaUdt7M7eNmm6y3B0exCWVPRybimIt+4rG139DtCVsPhwiihoAioV3OBSONb94p1nLvia2M4wPqy+X0f/F146JLLe+pZlE0vivsPnmO809dnJBw3GUT0dbwo5NjZt+JooNxJ8sumZ6HArHlts+w/gQiY64ahqIYgPFwjvcuXtTaeO6Lht2kTt3b2qiROX3H5Df3bc1ATguiImpKBimQ+m7tvra0tTiwyH09d8A13VZadvd2cNmbttyorMBPyJj9zT97IxH6lcsvMNGbpvYLzYVBQDkd/aVXZUN+NHXf0PJUK9lX0MUG8qxgnCMjfUtw/Nodl9tr9hWSKnveSSfJwyhOkAS58SjWbCBi5idn8Ql9gLyu/tIL2fQ2XXZdDeolKuYsJFSD18PIZ2yfz/tcEXnDJfff1D+3j/Qg8WluKGcQE4ubaxvITHzzPL8eqeUD4ck828hjY31LcPxyaU4hoYHDe18OITY1Lhpv9hUlLhQydeaTmWIEZrEXIyYKJPHS8w8M4wnj8N1XcbEozni2MVCSdKPqp1lLyASHdE8Tz4cwlh0BLHHc0TTs+WoSDNRy+zu7GHi0azpZ+Vy9fTPD6dt0izeWN8izvZD4RiRB9O2nEO5MtANOC6IxFzMWKglHCmfp799alkjMzQ8iNn5yZbHZhgfkktxw+9gdn6SKOpm/YaGBy13X0ASo/7csanxptnf5FLcNKfR138DyaV407HV45GeJxvwY/XlMvEzV+ux+fBVYnt3OAQ24AfD+NB5KkKe/xwM4wN/+pmeS+wFsKyxnYSThVdrL5dRqb5VfjbevDD8UtXJmgRBsPX6iaEtEr3XNEN7KBzjoFgy9FcLguOCRGedNGZy6WOpA8P4kJiLWY4voy5mYwN+xUxoNt6iyc4LgDgR6/UTZYEgcVAsGUqeZdNTT8vCrtt0ysweACD9MvI//YDiLz8qIh4aHkTxlx8tbXO7NSiHwrGt45xAMqvmAEj3pV4VK+Uq+Gu30H31K3QGew3JHKtVLzHzDF/23sfD0Wn09d5HRbXd8uGQMin0AkmnsugM9qL76lfgr93S9FOXO/QN9GgWgM3cNvhrt9AZ7AV/7ZZSTgzgdMGRFin9KryWfa0ZT9/PbNUGJCEnZp6hM9irnIO0I9frJxi6/Q0ejk7j4eg0hm5/o5lIpIndsrDthtLUq4NTcFzQVgGUIPzq+NgkKuUq7tz+q2Lzd6qcKEASmdofWM280kw60s4ko7ZPRbGBVV0kiA1cBABwXR9X/Xr9ROM0i2LDYB/z1yWBhnVmyeLTFeVaRbGBxacrms/lBJvenDGMt5wh9iMx8WiWaPfrqZQ/aHRXLleR39lT/s0wPsMu3ZYp0qzgX79yOcnEJHkXUJNbd/+FBFFs4M7tbzTC1ZtKolg39FNPOrPUfYWweAg17WSVBeNTlTBUyh+gp6xrk0se9JNK75ALtSOkU1nlp1h4B0Br5tXrJ4Z++oUvYDJ5D4ol2+HR8nvj89DnFvQTqK2oyEoqg76BHmLEA5C2ObeQ7XCzh1I5dUCdIvJgGsVCCQzjQ/7tv5R7lrfZXdXK4RT1uv0YfDM7/SyZ2GYhU9JE0mO2K5HEakY7OYm2VmyhdoTI6BTRYQDM60WcgtNt+TKVctW1lxBEsWGYMOeRYfUqbmdp246KlE/ty83ctsGhtFsd1y56M6fwcwnpVLbtCkK7rGZfGa7Dyk5uhtnCcOmS/XOSzBY1Z6mNl+LM0g/JtLQTVm1lZTbDzJyx4kxFUELtCPEnSU0bw/hcL7nUh4TOqwBJOK3DVk/cseiI4mjpRcYGLgI6k0ktBrOtnDRZZGfxY19pLLXZQlpQ9P3kZ6cvVmMDfo3ZIhd3yUh2thTW7OalNtlpUy8m+onkxEJDeh56setNU8frsSVP3LuVbrn1bY0g7ty9iXQqA1FsGBy12GQUQu1XxUbXv9xstZoll+JKdlJ+21+NOrGlvp7kUhzJhTREsQE+HMKELuRaOc2Q6p285FJCqY5kA35DaFWeSIVCSVNKkJiLIb2SNe2Xd8AH6eZDGn+GD4c010AK77r2Mq/P5IUDJ3Dzu0b++f2yRiiy86jm4N1/NI6zOn2s729F3xdfK/fRSr+DYgkPRyVfgg34kf/ph5b7ke7DjEPhGF/23gcAgxNttx8AVKpvlb9L0RbzBVB9bDNI53Lle0XWvk/ZuvF2ye/uK0mRT8HG+pbGcYxNRhVhx58ksfnmu6b3v5a1LjAyo14/weLfPsaYhdoRkgvppllEfT8ASDxJEt9O0qOOacsxbrN6HjVmJRVOUilXsabzfQCXUupyzNMtWn130mn0TiQb8CvOlRwxssp+plNZQwJETXIhTfy2rHr9BJHRKYMZ0ewVtUPhmNhvd2cPscfzpk5svX6C2ON5Q0hTLuKy6hdxsC7ebJyDYsk0YOCKKWL2EoJTqLdwp+G4oOZ9ykq5Snxw+iiBIBjNo/6BHnRyQYSvhyDUjpTCL9K1q8eVTZ+h4UH0D9xAXWygUCghv7Nn6YzJLz9zXBBswI/CzyUIwlHTuD7D+NA30AOOC4LrCqL8vqoUpLXTz+w61c+M9LzUqE2Rg2IJK8sZ9A/0KOMUCyXLHIIrwm7FDmuVzdy2IRJD8R56Yat9Azu4YoqIYgOrGaPd4wQrHo64UJzDtbLVdCrT9FtVWz9nln7zKsUWrtZjx58kTQ3/VtnMbXs6Pk5xFleFbSdCYAdqV1NaxbWvEVbDMD4knyfQ13+j5b7JhbRr9jrlt0srERQS5yJsGT4cwuT0uK0M22ZuGyupDLWpKW1xrsKWkRIaV8GyfqXEVRQbKL+vnn55pfM1zpTfF59E2BSK29D/NYziSaiwKZ6ECpviSaiwKZ6ECpviSaiwKZ6ECpviSaiwKZ7kf/TcFmR0EqKMAAAAAElFTkSuQmCC;" vertex="1" parent="1">
          <mxGeometry x="-120" y="477" width="182" height="54" as="geometry" />
        </mxCell>
      </root>
    </mxGraphModel>
  </diagram>
</mxfile>
